<?xml version="1.0" standalone="no"?>
<!DOCTYPE svg PUBLIC "-//W3C//DTD SVG 20010904//EN"
 "http://www.w3.org/TR/2001/REC-SVG-20010904/DTD/svg10.dtd">
<svg version="1.0" xmlns="http://www.w3.org/2000/svg"
 width="1024.000000pt" height="1024.000000pt" viewBox="0 0 1024.000000 1024.000000"
 preserveAspectRatio="xMidYMid meet">
<style>svg{color:#0f172a}@media (prefers-color-scheme: dark){svg{color:#f8f9fc}}</style>

<g transform="translate(0.000000,1024.000000) scale(0.100000,-0.100000)"
fill="currentColor" stroke="none">
<path d="M4774 7699 c-157 -23 -308 -101 -424 -218 -156 -159 -220 -329 -207
-551 18 -312 220 -566 527 -662 64 -20 95 -23 215 -22 123 0 150 3 217 26 324
108 537 411 514 733 -8 119 -25 180 -83 295 -111 221 -331 371 -586 399 -53 6
-100 10 -104 10 -4 -1 -35 -5 -69 -10z"/>
<path d="M6950 7699 c-170 -26 -314 -100 -440 -228 -190 -193 -248 -418 -191
-741 27 -147 27 -270 1 -379 -52 -215 -218 -413 -434 -515 -194 -92 -375 -114
-676 -81 -74 8 -175 15 -223 15 -394 1 -750 -279 -834 -655 -19 -88 -19 -258
0 -351 56 -264 228 -477 479 -593 130 -60 186 -71 440 -81 130 -6 260 -16 304
-25 320 -67 598 -271 720 -530 63 -135 83 -229 94 -445 11 -209 27 -285 90
-416 103 -215 319 -388 565 -455 108 -30 347 -33 444 -6 166 46 267 103 381
217 134 134 200 271 221 463 36 316 -130 625 -404 756 -154 74 -258 85 -597
67 -152 -8 -172 -7 -250 12 -264 66 -494 275 -586 533 -49 140 -56 299 -23
583 41 364 102 555 250 777 118 175 316 347 514 446 104 52 176 76 365 124
241 60 375 137 504 289 56 65 119 189 143 280 27 101 24 293 -6 390 -83 266
-286 465 -543 529 -96 25 -223 33 -308 20z"/>
<path d="M2533 7656 c-106 -34 -187 -108 -224 -205 -21 -54 -22 -70 -21 -458
0 -221 3 -417 7 -435 21 -96 96 -188 193 -235 l57 -28 415 0 415 0 67 33 c77
38 130 92 167 171 l26 56 0 420 c0 414 0 421 -23 476 -32 80 -90 142 -170 181
l-67 33 -400 2 c-310 2 -409 -1 -442 -11z"/>
<path d="M2545 5666 c-101 -32 -172 -91 -218 -180 l-32 -61 0 -435 0 -435 28
-57 c48 -97 137 -170 242 -197 24 -7 183 -11 401 -11 403 0 427 3 521 67 30
20 68 58 88 88 63 96 67 127 63 568 l-3 392 -31 65 c-39 81 -94 139 -170 176
l-59 29 -395 2 c-300 2 -405 -1 -435 -11z"/>
<path d="M7145 5545 c-205 -57 -369 -220 -420 -420 -19 -75 -19 -202 0 -284
60 -254 298 -440 563 -441 265 -1 512 202 567 465 28 134 15 236 -47 365 -74
154 -217 271 -383 315 -72 18 -211 18 -280 0z"/>
<path d="M4762 3699 c-296 -49 -550 -291 -608 -579 -45 -228 22 -469 178 -635
98 -106 216 -179 353 -221 94 -29 307 -27 399 4 212 71 367 201 459 384 57
115 72 183 71 333 0 115 -3 139 -28 210 -89 258 -295 441 -557 495 -99 21
-180 23 -267 9z"/>
<path d="M2549 3677 c-99 -28 -178 -93 -225 -187 -38 -76 -45 -171 -40 -565 4
-353 6 -366 59 -458 35 -59 87 -103 167 -141 l65 -31 355 -3 c248 -3 372 0
410 8 118 26 212 100 263 208 l32 67 0 420 0 420 -27 57 c-37 79 -98 142 -177
181 l-66 32 -385 2 c-284 2 -397 -1 -431 -10z"/>
</g>
</svg>
